HIERARCHY
ROOT reference
{
  OFFSET 0 0 0
  CHANNELS 6 Xposition Yposition Zposition Zrotation Xrotation Yrotation
  JOINT Hips
  {
    OFFSET 33.3901 95.0035 228.991
    CHANNELS 6 Xposition Yposition Zposition Zrotation Xrotation Yrotation
    JOINT Spine
    {
      OFFSET 0 7.81434 0
      CHANNELS 6 Xposition Yposition Zposition Zrotation Xrotation Yrotation
      JOINT Spine1
      {
        OFFSET 0 23.3781 0
        CHANNELS 6 Xposition Yposition Zposition Zrotation Xrotation Yrotation
        JOINT Neck
        {
          OFFSET 0 23.2821 2.11656
          CHANNELS 6 Xposition Yposition Zposition Zrotation Xrotation Yrotation
          JOINT Head
          {
            OFFSET 0 13.3416 -1.90594
            CHANNELS 6 Xposition Yposition Zposition Zrotation Xrotation Yrotation
            End Site
            {
              OFFSET 0 23.8242 0
            }
          }
        }
        JOINT LeftShoulder
        {
          OFFSET 3.82472 21.4916 -0.175476
          CHANNELS 6 Xposition Yposition Zposition Zrotation Xrotation Yrotation
          JOINT LeftArm
          {
            OFFSET 10.8239 0 0
            CHANNELS 6 Xposition Yposition Zposition Zrotation Xrotation Yrotation
            JOINT LeftForeArm
            {
              OFFSET 28.5356 0 0
              CHANNELS 6 Xposition Yposition Zposition Zrotation Xrotation Yrotation
              JOINT LeftHand
              {
                OFFSET 24.5315 0 0
                CHANNELS 6 Xposition Yposition Zposition Zrotation Xrotation Yrotation
                End Site
                {
                  OFFSET 14.2945 0 0
                }
              }
            }
          }
        }
        JOINT RightShoulder
        {
          OFFSET -3.77033 21.4916 -0.175476
          CHANNELS 6 Xposition Yposition Zposition Zrotation Xrotation Yrotation
          JOINT RightArm
          {
            OFFSET -10.8239 0 0
            CHANNELS 6 Xposition Yposition Zposition Zrotation Xrotation Yrotation
            JOINT RightForeArm
            {
              OFFSET -28.5356 0 0
              CHANNELS 6 Xposition Yposition Zposition Zrotation Xrotation Yrotation
              JOINT RightHand
              {
                OFFSET -24.5315 0 0
                CHANNELS 6 Xposition Yposition Zposition Zrotation Xrotation Yrotation
                End Site
                {
                  OFFSET -14.2945 0 0
                }
              }
            }
          }
        }
      }
    }
    JOINT LeftUpLeg
    {
      OFFSET 9.52968 0 0
      CHANNELS 6 Xposition Yposition Zposition Zrotation Xrotation Yrotation
      JOINT LeftLeg
      {
        OFFSET 0 -40.1884 0
        CHANNELS 6 Xposition Yposition Zposition Zrotation Xrotation Yrotation
        JOINT LeftFoot
        {
          OFFSET 0 -39.9954 0
          CHANNELS 6 Xposition Yposition Zposition Zrotation Xrotation Yrotation
          JOINT LeftToeBase
          {
            OFFSET 0 -6.19429 14.2945
            CHANNELS 6 Xposition Yposition Zposition Zrotation Xrotation Yrotation
            End Site
            {
              OFFSET 0 0 3.81187
            }
          }
        }
      }
    }
    JOINT RightUpLeg
    {
      OFFSET -9.52968 0 0
      CHANNELS 6 Xposition Yposition Zposition Zrotation Xrotation Yrotation
      JOINT RightLeg
      {
        OFFSET 0 -40.1884 0
        CHANNELS 6 Xposition Yposition Zposition Zrotation Xrotation Yrotation
        JOINT RightFoot
        {
          OFFSET 0 -39.9954 0
          CHANNELS 6 Xposition Yposition Zposition Zrotation Xrotation Yrotation
          JOINT RightToeBase
          {
            OFFSET 0 -6.19429 14.2945
            CHANNELS 6 Xposition Yposition Zposition Zrotation Xrotation Yrotation
            End Site
            {
              OFFSET 0 0 3.81187
            }
          }
        }
      }
    }
  }
}
MOTION
Frames:	8
Frame Time:	0.004
0 0 0 0 0 -0 -9.93689 80.7528 -208.148 -1.28777 0.784906 0.648047 1.77636e-015 7.81434 -2.84217e-014 0.083427 -1.05845 0.458022 1.77636e-015 23.3781 -2.84217e-014 0.909344 -1.18939 0.466749 1.77636e-015 23.2821 2.11656 0.898387 19.1 1.14852 0 13.3416 -1.90594 -2.81987 1.63455 0.856479 3.82472 21.4916 -0.175476 8.56521 5.41336 11.5548 10.8239 0 0 -26.7251 5.8596 5.85161 28.5356 2.84217e-014 0 5.10236 -10.5211 -6.13659 24.5315 0 -2.84217e-014 6.86035 -10.4243 -2.92245 -3.77033 21.4916 -0.175476 -8.63602 3.60344 3.33065 -10.8239 -2.84217e-014 -2.84217e-014 22.1734 8.50905 -1.09704 -28.5356 -2.84217e-014 2.84217e-014 -1.00309 1.86675 1.90691 -24.5315 0 0 -13.291 1.93813 -0.469711 9.52968 -1.42109e-014 0 -0.197422 1.59408 -3.18564 0 -40.1884 0 -1.36299 6.15738 -3.7213 3.55271e-015 -39.9954 0 6.70629 -17.3344 8.7131 0 -6.19429 14.2945 -2.48481e-016 0 1.98785e-016 -9.52968 -1.42109e-014 -2.84217e-014 0.509705 -1.30182 2.93757 -1.77636e-015 -40.1884 0 0.532442 8.39709 -3.33241 0 -39.9954 -2.84217e-014 4.11345 -20.8303 -7.25574 0 -6.19429 14.2945 -1.98785e-016 0 -7.95139e-016 
0 0 0 0 0 -0 -9.93439 80.7528 -208.144 -1.29308 0.794487 0.634192 0 7.81434 0 0.0870445 -1.05548 0.4646 8.88178e-016 23.3781 0 0.909504 -1.19419 0.473328 0 23.2821 2.11656 0.895204 19.1005 1.15262 -8.88178e-016 13.3416 -1.90594 -2.81634 1.62907 0.861004 3.82472 21.4916 -0.175476 8.52505 5.44552 11.5824 10.8239 -1.42109e-014 -2.84217e-014 -26.7554 5.86872 5.83512 28.5356 -1.42109e-014 -2.84217e-014 5.1035 -10.5386 -6.13487 24.5315 0 0 6.69214 -10.4446 -3.06416 -3.77033 21.4916 -0.175476 -8.6033 3.64456 3.32781 -10.8239 1.42109e-014 0 22.1908 8.52611 -1.07471 -28.5356 -1.42109e-014 -2.84217e-014 -0.982553 1.8849 1.91616 -24.5315 1.42109e-014 0 -13.2977 1.95307 -0.444273 9.52968 0 0 -0.195447 1.58531 -3.18111 0 -40.1884 0 -1.36158 6.17169 -3.77009 -3.55271e-015 -39.9954 0 6.78197 -17.3183 8.77345 -4.44089e-016 -6.19429 14.2945 5.46658e-016 1.59028e-015 -3.97569e-016 -9.52968 1.42109e-014 2.84217e-014 0.510708 -1.3011 2.95182 -1.77636e-015 -40.1884 0 0.537511 8.3821 -3.35345 0 -39.9954 0 4.07961 -20.8344 -7.26433 0 -6.19429 14.2945 -9.93923e-016 0 -1.59028e-015 
0 0 0 0 0 -0 -9.91214 80.7528 -208.103 -1.33989 0.88237 0.514644 1.77636e-015 7.81434 -2.84217e-014 0.121522 -1.03156 0.52215 -1.77636e-015 23.3781 0 0.903509 -1.23933 0.530845 0 23.2821 2.11656 0.836978 19.0536 1.1743 0 13.3416 -1.90594 -2.73231 1.69591 0.893928 3.82472 21.4916 -0.175476 8.12988 5.75652 11.8321 10.8239 -2.84217e-014 0 -26.9792 5.9793 5.67458 28.5356 0 0 5.0655 -10.6813 -6.18208 24.5315 0 0 5.92801 -10.613 -3.95241 -3.77033 21.4916 -0.175476 -8.30504 3.98923 3.306 -10.8239 -2.84217e-014 -2.84217e-014 22.353 8.71755 -0.901497 -28.5356 1.42109e-014 0 -0.80816 2.02893 2.02822 -24.5315 -1.42109e-014 0 -13.3724 2.07093 -0.236583 9.52968 -1.42109e-014 0 -0.179778 1.50545 -3.14095 1.77636e-015 -40.1884 2.84217e-014 -1.34408 6.28614 -4.11357 3.55271e-015 -39.9954 0 7.31377 -17.2229 9.20362 4.44089e-016 -6.19429 14.2945 -0 0 3.97569e-016 -9.52968 0 -2.84217e-014 0.52593 -1.30171 3.02497 1.77636e-015 -40.1884 2.84217e-014 0.559291 8.25486 -3.5128 3.55271e-015 -39.9954 2.84217e-014 3.85725 -20.8632 -7.29512 7.10543e-015 -6.19429 14.2945 -3.97569e-016 1.59028e-015 -0 
0 0 0 0 0 -0 -9.89037 80.7528 -208.069 -1.3814 0.975828 0.415954 0 7.81434 0 0.160894 -1.01871 0.573639 0 23.3781 -2.84217e-014 0.867337 -1.28928 0.582051 1.77636e-015 23.2821 2.11656 0.706457 18.8269 1.13424 -1.77636e-015 13.3416 -1.90594 -2.50244 2.16617 0.886942 3.82472 21.4916 -0.175476 7.64767 6.12139 12.0793 10.8239 0 2.84217e-014 -27.0444 6.197 5.48434 28.5356 -1.42109e-014 0 4.85415 -10.7691 -6.4722 24.5315 2.84217e-014 0 7.8601 -10.7257 -3.34517 -3.77033 21.4916 -0.175476 -7.99182 4.22304 3.29597 -10.8239 0 0 22.536 9.06785 -0.838883 -28.5356 0 -2.84217e-014 -0.682896 2.09315 2.23916 -24.5315 -2.84217e-014 2.84217e-014 -13.5166 2.11829 -0.0995089 9.52968 0 0 -0.174387 1.42444 -3.10684 0 -40.1884 0 -1.31195 6.33955 -4.06799 3.55271e-015 -39.9954 0 7.25717 -17.3266 9.18053 -4.44089e-016 -6.19429 14.2945 3.23025e-016 0 -0 -9.52968 1.42109e-014 0 0.558958 -1.33059 2.89745 5.32907e-015 -40.1884 -2.84217e-014 0.501725 8.15679 -3.59715 -7.10543e-015 -39.9954 2.84217e-014 3.95976 -20.8563 -7.1142 0 -6.19429 14.2945 -3.97569e-016 0 -3.18055e-015 
0 0 0 0 0 -0 -9.86663 80.7529 -208.032 -1.41575 1.06467 0.312001 -1.77636e-015 7.81434 -2.84217e-014 0.188693 -1.00028 0.630097 -1.77636e-015 23.3781 -2.84217e-014 0.828821 -1.3291 0.638031 0 23.2821 2.11656 0.808093 18.7439 1.09966 -1.77636e-015 13.3416 -1.90594 -2.59349 2.30633 0.844568 3.82472 21.4916 -0.175476 7.38462 6.33237 12.2959 10.8239 2.84217e-014 2.84217e-014 -27.321 6.35519 5.37889 28.5356 1.42109e-014 0 4.7437 -10.8502 -6.70952 24.5315 -2.84217e-014 2.84217e-014 7.9875 -10.7916 -3.12895 -3.77033 21.4916 -0.175476 -7.66729 4.44726 3.26782 -10.8239 -1.42109e-014 0 22.6786 9.33647 -0.752756 -28.5356 0 -2.84217e-014 -0.4952 2.19034 2.40535 -24.5315 -2.84217e-014 0 -13.6248 2.19601 0.0380674 9.52968 2.84217e-014 -2.84217e-014 -0.174645 1.35445 -3.08512 0 -40.1884 0 -1.28634 6.38511 -4.02204 -3.55271e-015 -39.9954 0 7.26388 -17.4078 9.17736 4.44089e-016 -6.19429 14.2945 -1.49089e-016 -4.77083e-015 -1.98785e-016 -9.52968 0 0 0.557577 -1.35457 2.88219 -1.77636e-015 -40.1884 0 0.521126 8.04939 -3.86685 -3.55271e-015 -39.9954 0 4.01651 -20.8421 -6.86317 0 -6.19429 14.2945 -1.19271e-015 1.59028e-015 1.59028e-015 
0 0 0 0 0 -0 -9.84196 80.7529 -207.989 -1.45159 1.13954 0.194613 0 7.81434 0 0.222639 -0.956056 0.690393 1.77636e-015 23.3781 0 0.785465 -1.39003 0.698147 8.88178e-016 23.2821 2.11656 0.879894 18.6843 1.09037 8.88178e-016 13.3416 -1.90594 -2.66003 2.41094 0.830297 3.82472 21.4916 -0.175476 7.10857 6.57662 12.528 10.8239 0 0 -27.5792 6.42318 5.2445 28.5356 1.42109e-014 0 4.61158 -10.8536 -6.91375 24.5315 2.84217e-014 0 7.89189 -10.7854 -3.03462 -3.77033 21.4916 -0.175476 -7.34743 4.75779 3.23718 -10.8239 -1.42109e-014 2.84217e-014 22.6912 9.21121 -0.631851 -28.5356 0 2.84217e-014 0.00240366 2.39644 2.73514 -24.5315 -1.42109e-014 0 -13.2985 2.41464 -0.155127 9.52968 0 0 -0.171694 1.29166 -3.04186 0 -40.1884 0 -1.26518 6.4594 -3.99289 0 -39.9954 0 7.28074 -17.5176 9.182 -8.88178e-016 -6.19429 14.2945 -1.98785e-016 1.59028e-015 1.98785e-016 -9.52968 1.42109e-014 -2.84217e-014 0.557995 -1.36284 2.86936 1.77636e-015 -40.1884 -2.84217e-014 0.538417 7.96796 -3.88102 0 -39.9954 2.84217e-014 4.05001 -20.8685 -6.8536 0 -6.19429 14.2945 3.97569e-016 -1.59028e-015 3.18055e-015 
0 0 0 0 0 -0 -9.81339 80.7529 -207.952 -1.47242 1.19563 0.0655146 0 7.81434 2.84217e-014 0.237421 -0.87865 0.763176 0 23.3781 2.84217e-014 0.757862 -1.46091 0.770991 -1.77636e-015 23.2821 2.11656 0.910359 18.6495 1.06409 -8.88178e-016 13.3416 -1.90594 -2.68291 2.47499 0.80205 3.82472 21.4916 -0.175476 6.82738 6.80066 12.7327 10.8239 0 0 -27.8733 6.61936 5.12996 28.5356 1.42109e-014 0 4.52505 -11.0759 -7.09488 24.5315 2.84217e-014 -2.84217e-014 7.84259 -11.0045 -3.03348 -3.77033 21.4916 -0.175476 -7.04331 4.98401 3.22531 -10.8239 2.84217e-014 2.84217e-014 23.0314 9.82652 -0.596437 -28.5356 -1.42109e-014 0 -0.128746 2.30959 2.94845 -24.5315 0 0 -13.1742 2.3184 -0.0475391 9.52968 0 2.84217e-014 -0.195621 1.2757 -3.0011 1.77636e-015 -40.1884 0 -1.22682 6.46842 -3.90097 0 -39.9954 -2.84217e-014 7.24244 -17.6112 9.14945 0 -6.19429 14.2945 -4.47266e-016 0 3.97569e-016 -9.52968 1.42109e-014 2.84217e-014 0.541509 -1.36629 2.83781 1.77636e-015 -40.1884 2.84217e-014 0.545835 7.90139 -3.86431 0 -39.9954 0 4.12083 -20.9003 -6.80557 0 -6.19429 14.2945 3.97569e-016 0 -1.59028e-015 
0 0 0 0 0 -0 -9.79087 80.7529 -207.91 -1.50708 1.28061 -0.0215755 -1.77636e-015 7.81434 0 0.261826 -0.8534 0.82039 -1.77636e-015 23.3781 0 0.723339 -1.50907 0.827945 -1.77636e-015 23.2821 2.11656 0.917541 18.6336 1.05628 -8.88178e-016 13.3416 -1.90594 -2.62607 2.49103 0.801236 3.82472 21.4916 -0.175476 6.55537 6.97542 12.9429 10.8239 2.84217e-014 2.84217e-014 -28.1316 6.7437 5.00725 28.5356 0 -2.84217e-014 4.32712 -10.9304 -7.30773 24.5315 0 0 7.96027 -10.8647 -3.01024 -3.77033 21.4916 -0.175476 -6.71203 5.21793 3.18544 -10.8239 1.42109e-014 0 23.2466 10.2 -0.4817 -28.5356 0 0 -0.0165735 2.33683 3.09153 -24.5315 1.42109e-014 0 -13.2568 2.32326 0.119961 9.52968 1.42109e-014 0 -0.188581 1.21504 -2.97429 0 -40.1884 0 -1.21425 6.50686 -3.83852 0 -39.9954 0 7.24104 -17.7085 9.1175 -4.44089e-016 -6.19429 14.2945 -7.20594e-016 3.18055e-015 -3.97569e-016 -9.52968 0 0 0.545346 -1.3822 2.82771 -3.55271e-015 -40.1884 -2.84217e-014 0.559876 7.82106 -3.88247 0 -39.9954 0 4.17233 -20.9306 -6.79385 -7.10543e-015 -6.19429 14.2945 3.97569e-016 0 -0 
